<svg xmlns="http://www.w3.org/2000/svg" width="1180" height="1180" viewBox="0 0 1180 1180" role="img" aria-labelledby="t d" font-family="ui-sans-serif,-apple-system,Segoe UI,Roboto,Helvetica,Arial,sans-serif"><title id="t">THE 24-CHAMBER CYLINDER</title><desc id="d">THE 24-CHAMBER CYLINDER. One permanent hand. Twenty-four chambers. Exactly one mounted at a time.. Radial diagram of 24 chambers around a central mount; each chamber is labelled with its number, its discipline and its brief size. Full data also given as a table in the page text.</desc><rect width="1180" height="1180" fill="#0B1015"/><text x="48" y="58" font-size="27" fill="#F3F7F9" text-anchor="start" font-weight="700" letter-spacing="1.5">THE 24-CHAMBER CYLINDER</text><text x="48" y="86" font-size="15" fill="#A7B6C2" text-anchor="start" font-weight="400" letter-spacing="0">One permanent hand. Twenty-four chambers. Exactly one mounted at a time.</text><circle cx="590.0" cy="590.0" r="452" fill="none" stroke="#33424F" stroke-width="1.5"/><circle cx="590.0" cy="590.0" r="292" fill="none" stroke="#33424F" stroke-width="1.5"/><path d="M 532.6 153.8 A 440 440 0 0 1 758.4 183.5" fill="none" stroke="#A78BFA" stroke-width="7" stroke-linecap="round"/><text x="651.3473103434242" y="124.02091515430914" font-size="12" fill="#A78BFA" text-anchor="middle" font-weight="700" letter-spacing="1" transform="rotate(7.5 651.3473103434242 124.02091515430914)">STRATEGY / ANALYSIS</text><path d="M 758.4 183.5 A 440 440 0 0 1 1026.2 647.4" fill="none" stroke="#2DD4E8" stroke-width="7" stroke-linecap="round"/><text x="997.0319397786861" y="355.0" font-size="12" fill="#2DD4E8" text-anchor="middle" font-weight="700" letter-spacing="1" transform="rotate(60.0 997.0319397786861 355.0)">SCIENCE / MATH / DATA</text><path d="M 1026.2 647.4 A 440 440 0 0 1 532.6 1026.2" fill="none" stroke="#4ADE80" stroke-width="7" stroke-linecap="round"/><text x="876.1178716340987" y="962.8760699368805" font-size="12" fill="#4ADE80" text-anchor="middle" font-weight="700" letter-spacing="1" transform="rotate(142.5 876.1178716340987 962.8760699368805)">BUILD / ENGINEERING</text><path d="M 532.6 1026.2 A 440 440 0 0 1 322.1 939.1" fill="none" stroke="#FB7185" stroke-width="7" stroke-linecap="round"/><text x="410.13878678840786" y="1024.2233802803048" font-size="12" fill="#FB7185" text-anchor="middle" font-weight="700" letter-spacing="1" transform="rotate(382.5 410.13878678840786 1024.2233802803048)">SECURITY</text><path d="M 322.1 939.1 A 440 440 0 0 1 183.5 758.4" fill="none" stroke="#F5A524" stroke-width="7" stroke-linecap="round"/><text x="217.12393006311953" y="876.1178716340988" font-size="12" fill="#F5A524" text-anchor="middle" font-weight="700" letter-spacing="1" transform="rotate(412.5 217.12393006311953 876.1178716340988)">COMMUNICATION / DOCS</text><path d="M 183.5 758.4 A 440 440 0 0 1 183.5 421.6" fill="none" stroke="#E87BC8" stroke-width="7" stroke-linecap="round"/><text x="120.0" y="590.0000000000001" font-size="12" fill="#E87BC8" text-anchor="middle" font-weight="700" letter-spacing="1" transform="rotate(450.0 120.0 590.0000000000001)">GROWTH / COMMERCE</text><path d="M 183.5 421.6 A 440 440 0 0 1 532.6 153.8" fill="none" stroke="#F3F7F9" stroke-width="7" stroke-linecap="round"/><text x="303.88212836590117" y="217.1239300631196" font-size="12" fill="#F3F7F9" text-anchor="middle" font-weight="700" letter-spacing="1" transform="rotate(502.5 303.88212836590117 217.1239300631196)">DESIGN / CREATIVE</text><circle cx="590.0" cy="218.0" r="54" fill="#1E2833" stroke="#A78BFA" stroke-width="2.5"/><circle cx="590.0" cy="218.0" r="40" fill="#0B1015" stroke="#33424F" stroke-width="1.2"/><text x="590.0" y="216.0" font-size="21" fill="#A78BFA" text-anchor="middle" font-weight="700" letter-spacing="0">01</text><text x="590.0" y="234.0" font-size="10" fill="#A7B6C2" text-anchor="middle" font-weight="400" letter-spacing="0">13 items</text><text x="590.0" y="72.0" font-size="12.5" fill="#F3F7F9" text-anchor="start" font-weight="500" letter-spacing="0" transform="rotate(-90.0 590.0 72.0)">Geopolitical Analyst</text><line x1="590.0" y1="482.0" x2="590.0" y2="276.0" stroke="#33424F" stroke-width="1.2"/><circle cx="686.3" cy="230.7" r="54" fill="#1E2833" stroke="#A78BFA" stroke-width="2.5"/><circle cx="686.3" cy="230.7" r="40" fill="#0B1015" stroke="#33424F" stroke-width="1.2"/><text x="686.2806847781377" y="228.6755926204666" font-size="21" fill="#A78BFA" text-anchor="middle" font-weight="700" letter-spacing="0">02</text><text x="686.2806847781377" y="246.6755926204666" font-size="10" fill="#A7B6C2" text-anchor="middle" font-weight="400" letter-spacing="0">7 items</text><text x="724.0682653631058" y="89.65042198226263" font-size="12.5" fill="#F3F7F9" text-anchor="start" font-weight="500" letter-spacing="0" transform="rotate(-75.0 724.0682653631058 89.65042198226263)">Management Consultant</text><line x1="618.0" y1="485.7" x2="671.3" y2="286.7" stroke="#33424F" stroke-width="1.2"/><circle cx="776.0" cy="267.8" r="54" fill="#1E2833" stroke="#2DD4E8" stroke-width="2.5"/><circle cx="776.0" cy="267.8" r="40" fill="#0B1015" stroke="#33424F" stroke-width="1.2"/><text x="776.0" y="265.8385497921888" font-size="21" fill="#2DD4E8" text-anchor="middle" font-weight="700" letter-spacing="0">03</text><text x="776.0" y="283.8385497921888" font-size="10" fill="#A7B6C2" text-anchor="middle" font-weight="400" letter-spacing="0">5 items</text><text x="849.0" y="141.39884083966075" font-size="12.5" fill="#F3F7F9" text-anchor="start" font-weight="500" letter-spacing="0" transform="rotate(-60.0 849.0 141.39884083966075)">Computer Scientist</text><line x1="644.0" y1="496.5" x2="747.0" y2="318.1" stroke="#33424F" stroke-width="1.2"/><circle cx="853.0" cy="327.0" r="54" fill="#1E2833" stroke="#2DD4E8" stroke-width="2.5"/><circle cx="853.0" cy="327.0" r="40" fill="#0B1015" stroke="#33424F" stroke-width="1.2"/><text x="853.0437226013958" y="324.95627739860436" font-size="21" fill="#2DD4E8" text-anchor="middle" font-weight="700" letter-spacing="0">04</text><text x="853.0437226013958" y="342.95627739860436" font-size="10" fill="#A7B6C2" text-anchor="middle" font-weight="400" letter-spacing="0">4 items</text><text x="956.2813126546316" y="223.71868734536844" font-size="12.5" fill="#F3F7F9" text-anchor="start" font-weight="500" letter-spacing="0" transform="rotate(-45.0 956.2813126546316 223.71868734536844)">Mathematician</text><line x1="666.4" y1="513.6" x2="812.0" y2="368.0" stroke="#33424F" stroke-width="1.2"/><circle cx="912.2" cy="404.0" r="54" fill="#1E2833" stroke="#2DD4E8" stroke-width="2.5"/><circle cx="912.2" cy="404.0" r="40" fill="#0B1015" stroke="#33424F" stroke-width="1.2"/><text x="912.1614502078112" y="402.0" font-size="21" fill="#2DD4E8" text-anchor="middle" font-weight="700" letter-spacing="0">05</text><text x="912.1614502078112" y="420.0" font-size="10" fill="#A7B6C2" text-anchor="middle" font-weight="400" letter-spacing="0">14 items</text><text x="1038.6011591603392" y="331.0" font-size="12.5" fill="#F3F7F9" text-anchor="start" font-weight="500" letter-spacing="0" transform="rotate(-30.0 1038.6011591603392 331.0)">Principal Data Scientist</text><line x1="683.5" y1="536.0" x2="861.9" y2="433.0" stroke="#33424F" stroke-width="1.2"/><circle cx="949.3" cy="493.7" r="54" fill="#1E2833" stroke="#2DD4E8" stroke-width="2.5"/><circle cx="949.3" cy="493.7" r="40" fill="#0B1015" stroke="#33424F" stroke-width="1.2"/><text x="949.3244073795333" y="491.7193152218623" font-size="21" fill="#2DD4E8" text-anchor="middle" font-weight="700" letter-spacing="0">06</text><text x="949.3244073795333" y="509.7193152218623" font-size="10" fill="#A7B6C2" text-anchor="middle" font-weight="400" letter-spacing="0">24 items</text><text x="1090.3495780177373" y="455.93173463689425" font-size="12.5" fill="#F3F7F9" text-anchor="start" font-weight="500" letter-spacing="0" transform="rotate(-15.0 1090.3495780177373 455.93173463689425)">Data Visualizer</text><line x1="694.3" y1="562.0" x2="893.3" y2="508.7" stroke="#33424F" stroke-width="1.2"/><circle cx="962.0" cy="590.0" r="54" fill="#1E2833" stroke="#2DD4E8" stroke-width="2.5"/><circle cx="962.0" cy="590.0" r="40" fill="#0B1015" stroke="#33424F" stroke-width="1.2"/><text x="962.0" y="588.0" font-size="21" fill="#2DD4E8" text-anchor="middle" font-weight="700" letter-spacing="0">07</text><text x="962.0" y="606.0" font-size="10" fill="#A7B6C2" text-anchor="middle" font-weight="400" letter-spacing="0">6 items</text><text x="1108.0" y="590.0" font-size="12.5" fill="#F3F7F9" text-anchor="start" font-weight="500" letter-spacing="0" transform="rotate(0.0 1108.0 590.0)">Principal Computational Lingui</text><line x1="698.0" y1="590.0" x2="904.0" y2="590.0" stroke="#33424F" stroke-width="1.2"/><circle cx="949.3" cy="686.3" r="54" fill="#1E2833" stroke="#4ADE80" stroke-width="2.5"/><circle cx="949.3" cy="686.3" r="40" fill="#0B1015" stroke="#33424F" stroke-width="1.2"/><text x="949.3244073795333" y="684.2806847781378" font-size="21" fill="#4ADE80" text-anchor="middle" font-weight="700" letter-spacing="0">08</text><text x="949.3244073795333" y="702.2806847781378" font-size="10" fill="#A7B6C2" text-anchor="middle" font-weight="400" letter-spacing="0">15 items</text><text x="1090.3495780177373" y="724.0682653631059" font-size="12.5" fill="#F3F7F9" text-anchor="start" font-weight="500" letter-spacing="0" transform="rotate(15.0 1090.3495780177373 724.0682653631059)">Full-Stack Software Engineer</text><line x1="694.3" y1="618.0" x2="893.3" y2="671.3" stroke="#33424F" stroke-width="1.2"/><circle cx="912.2" cy="776.0" r="54" fill="#1E2833" stroke="#4ADE80" stroke-width="2.5"/><circle cx="912.2" cy="776.0" r="40" fill="#0B1015" stroke="#33424F" stroke-width="1.2"/><text x="912.1614502078112" y="774.0" font-size="21" fill="#4ADE80" text-anchor="middle" font-weight="700" letter-spacing="0">09</text><text x="912.1614502078112" y="792.0" font-size="10" fill="#A7B6C2" text-anchor="middle" font-weight="400" letter-spacing="0">6 items</text><text x="1038.6011591603392" y="848.9999999999999" font-size="12.5" fill="#F3F7F9" text-anchor="start" font-weight="500" letter-spacing="0" transform="rotate(30.0 1038.6011591603392 848.9999999999999)">Chief Systems Architect &amp; Prin</text><line x1="683.5" y1="644.0" x2="861.9" y2="747.0" stroke="#33424F" stroke-width="1.2"/><circle cx="853.0" cy="853.0" r="54" fill="#1E2833" stroke="#4ADE80" stroke-width="2.5"/><circle cx="853.0" cy="853.0" r="40" fill="#0B1015" stroke="#33424F" stroke-width="1.2"/><text x="853.0437226013958" y="851.0437226013956" font-size="21" fill="#4ADE80" text-anchor="middle" font-weight="700" letter-spacing="0">10</text><text x="853.0437226013958" y="869.0437226013956" font-size="10" fill="#A7B6C2" text-anchor="middle" font-weight="400" letter-spacing="0">12 items</text><text x="956.2813126546316" y="956.2813126546316" font-size="12.5" fill="#F3F7F9" text-anchor="start" font-weight="500" letter-spacing="0" transform="rotate(45.0 956.2813126546316 956.2813126546316)">Principal Infrastructure Archi</text><line x1="666.4" y1="666.4" x2="812.0" y2="812.0" stroke="#33424F" stroke-width="1.2"/><circle cx="776.0" cy="912.2" r="54" fill="#1E2833" stroke="#4ADE80" stroke-width="2.5"/><circle cx="776.0" cy="912.2" r="40" fill="#0B1015" stroke="#33424F" stroke-width="1.2"/><text x="776.0" y="910.1614502078112" font-size="21" fill="#4ADE80" text-anchor="middle" font-weight="700" letter-spacing="0">11</text><text x="776.0" y="928.1614502078112" font-size="10" fill="#A7B6C2" text-anchor="middle" font-weight="400" letter-spacing="0">11 items</text><text x="849.0" y="1038.6011591603392" font-size="12.5" fill="#F3F7F9" text-anchor="start" font-weight="500" letter-spacing="0" transform="rotate(60.0 849.0 1038.6011591603392)">Chief Site Reliability Archite</text><line x1="644.0" y1="683.5" x2="747.0" y2="861.9" stroke="#33424F" stroke-width="1.2"/><circle cx="686.3" cy="949.3" r="54" fill="#1E2833" stroke="#4ADE80" stroke-width="2.5"/><circle cx="686.3" cy="949.3" r="40" fill="#0B1015" stroke="#33424F" stroke-width="1.2"/><text x="686.2806847781378" y="947.3244073795333" font-size="21" fill="#4ADE80" text-anchor="middle" font-weight="700" letter-spacing="0">12</text><text x="686.2806847781378" y="965.3244073795333" font-size="10" fill="#A7B6C2" text-anchor="middle" font-weight="400" letter-spacing="0">9 items</text><text x="724.0682653631059" y="1090.3495780177373" font-size="12.5" fill="#F3F7F9" text-anchor="start" font-weight="500" letter-spacing="0" transform="rotate(75.0 724.0682653631059 1090.3495780177373)">Linux Kernel Principal Enginee</text><line x1="618.0" y1="694.3" x2="671.3" y2="893.3" stroke="#33424F" stroke-width="1.2"/><circle cx="590.0" cy="962.0" r="54" fill="#1E2833" stroke="#4ADE80" stroke-width="2.5"/><circle cx="590.0" cy="962.0" r="40" fill="#0B1015" stroke="#33424F" stroke-width="1.2"/><text x="590.0" y="960.0" font-size="21" fill="#4ADE80" text-anchor="middle" font-weight="700" letter-spacing="0">13</text><text x="590.0" y="978.0" font-size="10" fill="#A7B6C2" text-anchor="middle" font-weight="400" letter-spacing="0">6 items</text><text x="590.0" y="1108.0" font-size="12.5" fill="#F3F7F9" text-anchor="start" font-weight="500" letter-spacing="0" transform="rotate(90.0 590.0 1108.0)">Principal Systems Architect — </text><line x1="590.0" y1="698.0" x2="590.0" y2="904.0" stroke="#33424F" stroke-width="1.2"/><circle cx="493.7" cy="949.3" r="54" fill="#1E2833" stroke="#FB7185" stroke-width="2.5"/><circle cx="493.7" cy="949.3" r="40" fill="#0B1015" stroke="#33424F" stroke-width="1.2"/><text x="493.7193152218624" y="947.3244073795335" font-size="21" fill="#FB7185" text-anchor="middle" font-weight="700" letter-spacing="0">14</text><text x="493.7193152218624" y="965.3244073795335" font-size="10" fill="#A7B6C2" text-anchor="middle" font-weight="400" letter-spacing="0">19 items</text><text x="455.9317346368944" y="1090.3495780177375" font-size="12.5" fill="#F3F7F9" text-anchor="end" font-weight="500" letter-spacing="0" transform="rotate(285.0 455.9317346368944 1090.3495780177375)">Principal Cryptographic System</text><line x1="562.0" y1="694.3" x2="508.7" y2="893.3" stroke="#33424F" stroke-width="1.2"/><circle cx="404.0" cy="912.2" r="54" fill="#1E2833" stroke="#FB7185" stroke-width="2.5"/><circle cx="404.0" cy="912.2" r="40" fill="#0B1015" stroke="#33424F" stroke-width="1.2"/><text x="403.9999999999999" y="910.1614502078112" font-size="21" fill="#FB7185" text-anchor="middle" font-weight="700" letter-spacing="0">15</text><text x="403.9999999999999" y="928.1614502078112" font-size="10" fill="#A7B6C2" text-anchor="middle" font-weight="400" letter-spacing="0">24 items</text><text x="330.9999999999999" y="1038.6011591603392" font-size="12.5" fill="#F3F7F9" text-anchor="end" font-weight="500" letter-spacing="0" transform="rotate(300.0 330.9999999999999 1038.6011591603392)">Principal Vulnerability Resear</text><line x1="536.0" y1="683.5" x2="433.0" y2="861.9" stroke="#33424F" stroke-width="1.2"/><circle cx="327.0" cy="853.0" r="54" fill="#1E2833" stroke="#F5A524" stroke-width="2.5"/><circle cx="327.0" cy="853.0" r="40" fill="#0B1015" stroke="#33424F" stroke-width="1.2"/><text x="326.95627739860436" y="851.0437226013958" font-size="21" fill="#F5A524" text-anchor="middle" font-weight="700" letter-spacing="0">16</text><text x="326.95627739860436" y="869.0437226013958" font-size="10" fill="#A7B6C2" text-anchor="middle" font-weight="400" letter-spacing="0">10 items</text><text x="223.71868734536844" y="956.2813126546316" font-size="12.5" fill="#F3F7F9" text-anchor="end" font-weight="500" letter-spacing="0" transform="rotate(315.0 223.71868734536844 956.2813126546316)">Principal Technical Documentat</text><line x1="513.6" y1="666.4" x2="368.0" y2="812.0" stroke="#33424F" stroke-width="1.2"/><circle cx="267.8" cy="776.0" r="54" fill="#1E2833" stroke="#F5A524" stroke-width="2.5"/><circle cx="267.8" cy="776.0" r="40" fill="#0B1015" stroke="#33424F" stroke-width="1.2"/><text x="267.83854979218887" y="774.0000000000001" font-size="21" fill="#F5A524" text-anchor="middle" font-weight="700" letter-spacing="0">17</text><text x="267.83854979218887" y="792.0000000000001" font-size="10" fill="#A7B6C2" text-anchor="middle" font-weight="400" letter-spacing="0">6 items</text><text x="141.39884083966086" y="849.0000000000002" font-size="12.5" fill="#F3F7F9" text-anchor="end" font-weight="500" letter-spacing="0" transform="rotate(330.0 141.39884083966086 849.0000000000002)">Technical Writer</text><line x1="496.5" y1="644.0" x2="318.1" y2="747.0" stroke="#33424F" stroke-width="1.2"/><circle cx="230.7" cy="686.3" r="54" fill="#1E2833" stroke="#E87BC8" stroke-width="2.5"/><circle cx="230.7" cy="686.3" r="40" fill="#0B1015" stroke="#33424F" stroke-width="1.2"/><text x="230.6755926204666" y="684.2806847781377" font-size="21" fill="#E87BC8" text-anchor="middle" font-weight="700" letter-spacing="0">18</text><text x="230.6755926204666" y="702.2806847781377" font-size="10" fill="#A7B6C2" text-anchor="middle" font-weight="400" letter-spacing="0">7 items</text><text x="89.65042198226263" y="724.0682653631056" font-size="12.5" fill="#F3F7F9" text-anchor="end" font-weight="500" letter-spacing="0" transform="rotate(345.0 89.65042198226263 724.0682653631056)">Social Media Strategist &amp; SEO </text><line x1="485.7" y1="618.0" x2="286.7" y2="671.3" stroke="#33424F" stroke-width="1.2"/><circle cx="218.0" cy="590.0" r="54" fill="#1E2833" stroke="#E87BC8" stroke-width="2.5"/><circle cx="218.0" cy="590.0" r="40" fill="#0B1015" stroke="#33424F" stroke-width="1.2"/><text x="218.0" y="588.0" font-size="21" fill="#E87BC8" text-anchor="middle" font-weight="700" letter-spacing="0">19</text><text x="218.0" y="606.0" font-size="10" fill="#A7B6C2" text-anchor="middle" font-weight="400" letter-spacing="0">7 items</text><text x="72.0" y="590.0000000000001" font-size="12.5" fill="#F3F7F9" text-anchor="end" font-weight="500" letter-spacing="0" transform="rotate(360.0 72.0 590.0000000000001)">Director of Marketing Technolo</text><line x1="482.0" y1="590.0" x2="276.0" y2="590.0" stroke="#33424F" stroke-width="1.2"/><circle cx="230.7" cy="493.7" r="54" fill="#1E2833" stroke="#E87BC8" stroke-width="2.5"/><circle cx="230.7" cy="493.7" r="40" fill="#0B1015" stroke="#33424F" stroke-width="1.2"/><text x="230.67559262046655" y="491.7193152218624" font-size="21" fill="#E87BC8" text-anchor="middle" font-weight="700" letter-spacing="0">20</text><text x="230.67559262046655" y="509.7193152218624" font-size="10" fill="#A7B6C2" text-anchor="middle" font-weight="400" letter-spacing="0">5 items</text><text x="89.65042198226257" y="455.9317346368945" font-size="12.5" fill="#F3F7F9" text-anchor="end" font-weight="500" letter-spacing="0" transform="rotate(375.0 89.65042198226257 455.9317346368945)">Principal Pricing Scientist</text><line x1="485.7" y1="562.0" x2="286.7" y2="508.7" stroke="#33424F" stroke-width="1.2"/><circle cx="267.8" cy="404.0" r="54" fill="#1E2833" stroke="#F3F7F9" stroke-width="2.5"/><circle cx="267.8" cy="404.0" r="40" fill="#0B1015" stroke="#33424F" stroke-width="1.2"/><text x="267.8385497921888" y="402.0" font-size="21" fill="#F3F7F9" text-anchor="middle" font-weight="700" letter-spacing="0">21</text><text x="267.8385497921888" y="420.0" font-size="10" fill="#A7B6C2" text-anchor="middle" font-weight="400" letter-spacing="0">5 items</text><text x="141.3988408396608" y="330.99999999999994" font-size="12.5" fill="#F3F7F9" text-anchor="end" font-weight="500" letter-spacing="0" transform="rotate(390.0 141.3988408396608 330.99999999999994)">Master Identity Designer &amp; Typ</text><line x1="496.5" y1="536.0" x2="318.1" y2="433.0" stroke="#33424F" stroke-width="1.2"/><circle cx="327.0" cy="327.0" r="54" fill="#1E2833" stroke="#F3F7F9" stroke-width="2.5"/><circle cx="327.0" cy="327.0" r="40" fill="#0B1015" stroke="#33424F" stroke-width="1.2"/><text x="326.95627739860424" y="324.95627739860436" font-size="21" fill="#F3F7F9" text-anchor="middle" font-weight="700" letter-spacing="0">22</text><text x="326.95627739860424" y="342.95627739860436" font-size="10" fill="#A7B6C2" text-anchor="middle" font-weight="400" letter-spacing="0">6 items</text><text x="223.71868734536832" y="223.71868734536844" font-size="12.5" fill="#F3F7F9" text-anchor="end" font-weight="500" letter-spacing="0" transform="rotate(405.0 223.71868734536832 223.71868734536844)">Principal Character Concept Ar</text><line x1="513.6" y1="513.6" x2="368.0" y2="368.0" stroke="#33424F" stroke-width="1.2"/><circle cx="404.0" cy="267.8" r="54" fill="#1E2833" stroke="#F3F7F9" stroke-width="2.5"/><circle cx="404.0" cy="267.8" r="40" fill="#0B1015" stroke="#33424F" stroke-width="1.2"/><text x="403.99999999999983" y="265.8385497921889" font-size="21" fill="#F3F7F9" text-anchor="middle" font-weight="700" letter-spacing="0">23</text><text x="403.99999999999983" y="283.8385497921889" font-size="10" fill="#A7B6C2" text-anchor="middle" font-weight="400" letter-spacing="0">14 items</text><text x="330.9999999999998" y="141.39884083966092" font-size="12.5" fill="#F3F7F9" text-anchor="end" font-weight="500" letter-spacing="0" transform="rotate(420.0 330.9999999999998 141.39884083966092)">Global Systems Color Theorist</text><line x1="536.0" y1="496.5" x2="433.0" y2="318.1" stroke="#33424F" stroke-width="1.2"/><circle cx="493.7" cy="230.7" r="54" fill="#1E2833" stroke="#F3F7F9" stroke-width="2.5"/><circle cx="493.7" cy="230.7" r="40" fill="#0B1015" stroke="#33424F" stroke-width="1.2"/><text x="493.7193152218623" y="228.6755926204666" font-size="21" fill="#F3F7F9" text-anchor="middle" font-weight="700" letter-spacing="0">24</text><text x="493.7193152218623" y="246.6755926204666" font-size="10" fill="#A7B6C2" text-anchor="middle" font-weight="400" letter-spacing="0">6 items</text><text x="455.9317346368943" y="89.65042198226263" font-size="12.5" fill="#F3F7F9" text-anchor="end" font-weight="500" letter-spacing="0" transform="rotate(435.0 455.9317346368943 89.65042198226263)">Principal Game Systems Archite</text><line x1="562.0" y1="485.7" x2="508.7" y2="286.7" stroke="#33424F" stroke-width="1.2"/><circle cx="590.0" cy="590.0" r="104" fill="#161E27" stroke="#2DD4E8" stroke-width="3"/><circle cx="590.0" cy="590.0" r="86" fill="#0B1015" stroke="#33424F" stroke-width="1.5"/><text x="590.0" y="574.0" font-size="52" fill="#2DD4E8" text-anchor="middle" font-weight="700" letter-spacing="0">24</text><text x="590.0" y="604.0" font-size="12" fill="#A7B6C2" text-anchor="middle" font-weight="600" letter-spacing="2">CHAMBERS</text><text x="590.0" y="632.0" font-size="11.5" fill="#F5A524" text-anchor="middle" font-weight="700" letter-spacing="1">ONE AT A TIME</text><rect x="48" y="1088" width="1084" height="58" rx="14" fill="#161E27" stroke="#33424F" stroke-width="1.5"/><text x="70" y="1124" font-size="13" fill="#A7B6C2" text-anchor="start" font-weight="400" letter-spacing="0">A chamber with no live-researched brief does not fire. 241 action items across 24 briefs; group colour marks the discipline family.</text></svg>